<svg xmlns="http://www.w3.org/2000/svg" width="864" height="142" viewBox="0 0 864 142" role="img" aria-label="Summary. 340 contributions this year, 7 day longest streak, 4 public repositories"><title>Summary. 340 contributions this year, 7 day longest streak, 4 public repositories</title><defs><path id="sa53" d="M321 13Q242 13 184 -13Q126 -38 94 -84Q61 -129 57 -190H152Q156 -149 180 -123Q204 -96 241 -83Q278 -70 321 -70Q370 -70 409 -86Q449 -103 472 -132Q495 -161 495 -200Q495 -235 475 -257Q455 -279 422 -293Q390 -307 351 -318L263 -343Q175 -368 126 -414Q77 -460 77 -533Q77 -594 110 -640Q144 -687 200 -712Q257 -737 327 -737Q399 -737 454 -712Q509 -687 541 -643Q573 -599 575 -544H484Q478 -597 434 -626Q389 -655 324 -655Q277 -655 242 -640Q207 -625 187 -598Q167 -571 167 -537Q167 -499 191 -476Q215 -453 247 -440Q280 -427 306 -419L379 -399Q408 -392 444 -378Q479 -364 511 -342Q543 -319 564 -284Q585 -249 585 -198Q585 -139 554 -91Q523 -43 464 -15Q405 13 321 13Z"/><path id="sa55" d="M373 12Q287 12 222 -22Q158 -56 123 -114Q88 -173 88 -248V-728H181V-255Q181 -203 204 -162Q227 -121 270 -98Q313 -74 373 -74Q432 -74 475 -98Q518 -121 541 -162Q563 -203 563 -255V-728H656V-248Q656 -173 621 -114Q586 -56 522 -22Q458 12 373 12Z"/><path id="sa4d" d="M88 0V-728H220L399 -269Q405 -252 413 -228Q421 -204 430 -176Q439 -147 448 -119Q456 -91 462 -67H442Q449 -90 457 -117Q465 -145 474 -174Q483 -202 492 -227Q500 -252 506 -269L683 -728H815V0H724V-416Q724 -438 724 -467Q725 -496 725 -527Q726 -559 727 -592Q728 -625 728 -655H736Q726 -622 714 -587Q703 -552 692 -519Q681 -487 671 -460Q661 -433 654 -416L492 0H411L246 -416Q239 -433 230 -459Q221 -485 210 -517Q199 -549 187 -584Q175 -620 163 -655H172Q173 -628 174 -596Q174 -564 175 -532Q175 -500 176 -469Q176 -439 176 -416V0Z"/><path id="sa41" d="M25 0 290 -728H397L665 0H567L413 -432Q398 -472 380 -531Q361 -591 334 -684H352Q325 -590 306 -530Q287 -469 274 -432L124 0ZM158 -203V-284H532V-203Z"/><path id="sa52" d="M88 0V-728H337Q422 -728 477 -698Q532 -669 558 -619Q585 -568 585 -503Q585 -438 558 -388Q532 -338 477 -310Q422 -282 337 -282H140V-365H333Q391 -365 426 -382Q460 -398 477 -429Q493 -460 493 -503Q493 -546 477 -578Q460 -610 425 -628Q390 -646 332 -646H181V0ZM506 0 330 -328H435L613 0Z"/><path id="sa59" d="M293 0V-298L25 -728H133L277 -493Q301 -453 320 -417Q339 -381 359 -327H322Q342 -382 361 -419Q380 -455 403 -493L546 -728H653L386 -298V0Z"/><path id="se33" d="M135 9Q83 9 52 -10Q20 -29 20 -60Q20 -77 30 -86Q40 -96 56 -96Q75 -96 81 -84Q87 -72 90 -57Q93 -42 104 -30Q114 -18 141 -18Q198 -18 234 -72Q269 -125 269 -212Q269 -405 159 -405Q119 -405 91 -386Q75 -374 67 -383Q61 -393 75 -407L147 -475Q191 -516 211 -550Q231 -584 231 -618Q231 -655 214 -676Q198 -696 169 -696Q131 -696 105 -668Q79 -640 71 -591Q69 -576 56 -576Q42 -576 44 -594Q51 -656 90 -693Q130 -730 188 -730Q238 -730 268 -702Q299 -675 299 -629Q299 -550 170 -461L147 -445Q143 -442 144 -438Q146 -435 151 -436Q168 -441 185 -441Q231 -441 266 -415Q301 -389 321 -342Q341 -296 341 -236Q341 -188 324 -144Q307 -100 278 -66Q249 -31 212 -11Q175 9 135 9Z"/><path id="se34" d="M170 0Q155 0 155 -11Q155 -22 168 -23L211 -29Q232 -32 238 -40Q245 -47 245 -66V-196Q245 -210 231 -210H29Q10 -210 10 -227Q10 -232 12 -238Q15 -243 19 -252L259 -710Q263 -720 275 -720H295Q313 -720 304 -703L64 -280Q57 -266 72 -266H231Q245 -266 245 -280V-476Q245 -485 255 -492L292 -513Q299 -517 304 -514Q309 -512 309 -504V-280Q309 -266 323 -266H367Q379 -266 379 -254V-222Q379 -210 367 -210H323Q309 -210 309 -196V-66Q309 -45 316 -38Q322 -31 343 -27L366 -23Q379 -20 379 -11Q379 0 364 0Z"/><path id="se30" d="M230 9Q172 9 128 -40Q84 -89 60 -173Q36 -257 36 -361Q36 -465 60 -548Q84 -632 128 -681Q172 -730 230 -730Q288 -730 332 -681Q375 -632 400 -548Q424 -465 424 -361Q424 -257 400 -173Q375 -89 332 -40Q288 9 230 9ZM230 -18Q293 -18 322 -103Q352 -188 352 -361Q352 -534 322 -618Q293 -703 230 -703Q167 -703 138 -618Q108 -534 108 -361Q108 -188 138 -103Q167 -18 230 -18Z"/><path id="sa63" d="M299 12Q225 12 169 -23Q113 -59 82 -122Q51 -186 51 -270Q51 -355 82 -419Q113 -482 169 -518Q225 -553 299 -553Q339 -553 374 -542Q409 -532 438 -513Q467 -494 488 -466Q509 -438 521 -402L436 -378Q430 -399 418 -417Q406 -434 388 -447Q371 -460 349 -467Q326 -474 299 -474Q245 -474 209 -446Q174 -417 157 -371Q140 -324 140 -270Q140 -216 157 -170Q174 -124 209 -95Q245 -67 299 -67Q327 -67 350 -74Q373 -82 390 -95Q408 -108 420 -127Q433 -146 438 -167L522 -144Q512 -107 490 -78Q469 -50 440 -30Q411 -9 375 1Q339 12 299 12Z"/><path id="sa6f" d="M299 12Q225 12 169 -23Q113 -59 82 -122Q51 -186 51 -270Q51 -355 82 -419Q113 -482 169 -518Q225 -553 299 -553Q374 -553 430 -518Q486 -482 518 -419Q549 -355 549 -270Q549 -186 518 -122Q486 -59 430 -23Q374 12 299 12ZM299 -67Q354 -67 390 -95Q426 -124 443 -170Q460 -216 460 -270Q460 -324 443 -370Q426 -417 390 -446Q354 -474 299 -474Q245 -474 209 -446Q174 -417 157 -371Q140 -324 140 -270Q140 -216 157 -170Q174 -124 209 -95Q245 -67 299 -67Z"/><path id="sa6e" d="M165 -327V0H77V-546H162L162 -414H150Q175 -489 221 -521Q267 -553 329 -553Q384 -553 426 -530Q467 -507 490 -462Q514 -416 514 -347V0H426V-339Q426 -402 393 -438Q360 -474 303 -474Q264 -474 232 -457Q201 -439 183 -407Q165 -374 165 -327Z"/><path id="sa74" d="M292 -546V-471H10V-546ZM92 -676H180V-142Q180 -105 195 -88Q209 -71 244 -71Q252 -71 265 -73Q278 -75 289 -77L307 -3Q293 2 276 4Q259 7 242 7Q171 7 131 -31Q92 -68 92 -135Z"/><path id="sa72" d="M77 0V-546H162V-462H168Q183 -503 222 -529Q261 -554 310 -554Q319 -554 333 -553Q346 -553 354 -552V-464Q350 -465 334 -467Q319 -469 301 -469Q262 -469 231 -452Q200 -436 183 -407Q165 -379 165 -342V0Z"/><path id="sa69" d="M77 0V-546H165V0ZM122 -635Q97 -635 79 -652Q61 -669 61 -693Q61 -718 79 -735Q97 -751 122 -751Q147 -751 165 -735Q183 -718 183 -693Q183 -669 165 -652Q147 -635 122 -635Z"/><path id="sa62" d="M331 12Q279 12 247 -6Q215 -24 198 -47Q181 -69 172 -84H162V0H77V-728H165V-458H172Q181 -473 198 -495Q214 -518 246 -535Q277 -553 330 -553Q398 -553 450 -519Q502 -484 532 -421Q562 -358 562 -271Q562 -185 532 -121Q503 -58 451 -23Q399 12 331 12ZM317 -67Q369 -67 403 -94Q438 -122 455 -169Q472 -215 472 -272Q472 -329 455 -375Q438 -420 404 -447Q369 -474 317 -474Q267 -474 233 -449Q199 -423 181 -378Q164 -333 164 -272Q164 -212 182 -166Q199 -119 234 -93Q268 -67 317 -67Z"/><path id="sa75" d="M262 7Q207 7 165 -16Q124 -39 100 -84Q77 -130 77 -199V-546H165V-207Q165 -144 198 -108Q231 -72 289 -72Q328 -72 359 -89Q390 -106 408 -139Q426 -172 426 -219V-546H514V0H429V-132H441Q416 -56 369 -24Q322 7 262 7Z"/><path id="sa73" d="M263 12Q207 12 163 -5Q119 -21 91 -53Q62 -85 53 -132L136 -152Q148 -107 180 -86Q213 -65 262 -65Q319 -65 353 -90Q387 -114 387 -148Q387 -176 367 -195Q347 -214 307 -223L216 -245Q142 -262 105 -299Q69 -336 69 -394Q69 -440 96 -476Q122 -512 168 -532Q213 -553 271 -553Q328 -553 367 -536Q406 -519 431 -490Q456 -460 468 -421L388 -401Q377 -430 351 -454Q325 -478 272 -478Q223 -478 191 -456Q158 -433 158 -399Q158 -369 180 -350Q202 -332 250 -321L333 -301Q407 -284 442 -247Q478 -210 478 -154Q478 -106 451 -69Q424 -31 375 -10Q327 12 263 12Z"/><path id="sa68" d="M165 -327V0H77V-728H165V-414H150Q175 -489 221 -521Q267 -553 329 -553Q384 -553 426 -530Q468 -507 491 -462Q514 -416 514 -347V0H426V-339Q426 -402 393 -438Q360 -474 303 -474Q264 -474 232 -457Q201 -439 183 -407Q165 -374 165 -327Z"/><path id="sa79" d="M68 198 91 122 100 124Q127 131 149 128Q171 125 188 106Q206 87 219 48L235 3L26 -546H123L239 -222Q257 -171 270 -122Q283 -72 297 -25H265Q279 -72 292 -122Q305 -172 323 -222L440 -546H536L296 82Q279 125 256 153Q233 181 202 195Q171 208 133 208Q109 208 92 205Q75 201 68 198Z"/><path id="sa65" d="M307 12Q228 12 170 -23Q113 -59 82 -122Q51 -185 51 -269Q51 -353 81 -417Q111 -480 167 -517Q222 -553 296 -553Q340 -553 382 -538Q424 -524 459 -492Q493 -460 514 -408Q534 -355 534 -280V-243H110V-317H487L446 -290Q446 -344 429 -385Q412 -427 379 -451Q346 -475 296 -475Q247 -475 212 -450Q177 -426 158 -387Q140 -349 140 -304V-255Q140 -194 161 -152Q182 -110 219 -88Q257 -66 307 -66Q339 -66 366 -76Q392 -85 411 -104Q430 -123 440 -150L525 -127Q513 -86 482 -55Q452 -23 407 -6Q363 12 307 12Z"/><path id="sa61" d="M230 13Q178 13 136 -7Q94 -26 69 -64Q44 -102 44 -155Q44 -202 62 -231Q81 -261 112 -278Q143 -294 181 -303Q218 -311 256 -316Q305 -322 336 -326Q367 -329 382 -337Q396 -346 396 -366V-369Q396 -403 384 -427Q371 -450 346 -463Q320 -476 282 -476Q243 -476 215 -463Q188 -451 170 -433Q153 -415 144 -396L60 -423Q81 -473 116 -501Q152 -529 195 -541Q238 -553 280 -553Q307 -553 342 -546Q377 -540 409 -520Q442 -500 463 -462Q484 -424 484 -360V0H398V-74H392Q383 -55 362 -35Q342 -15 309 -1Q276 13 230 13ZM245 -65Q294 -65 328 -84Q361 -103 379 -134Q396 -164 396 -197V-273Q391 -267 373 -261Q355 -256 332 -252Q309 -249 287 -246Q265 -243 252 -242Q221 -238 193 -228Q166 -219 149 -200Q132 -182 132 -151Q132 -123 147 -104Q162 -84 187 -75Q212 -65 245 -65Z"/><path id="se37" d="M99 0Q83 0 88 -15L311 -644Q316 -660 300 -660H78Q62 -660 54 -654Q46 -648 41 -642Q36 -635 28 -635Q20 -635 18 -642Q17 -648 19 -656L34 -708Q37 -720 49 -720H346Q360 -720 360 -708Q360 -700 352 -675L138 -11Q135 0 124 0Z"/><path id="sa64" d="M282 12Q214 12 162 -23Q109 -58 80 -121Q51 -185 51 -271Q51 -358 80 -421Q110 -484 162 -519Q214 -553 282 -553Q335 -553 367 -535Q398 -518 415 -495Q432 -473 440 -458H447V-728H535V0H450V-84H440Q432 -69 414 -47Q397 -24 365 -6Q334 12 282 12ZM295 -67Q345 -67 379 -93Q413 -119 431 -166Q448 -212 448 -272Q448 -333 431 -378Q414 -423 379 -449Q345 -474 295 -474Q243 -474 209 -447Q174 -420 157 -375Q140 -329 140 -272Q140 -215 157 -169Q175 -122 209 -94Q244 -67 295 -67Z"/><path id="sa6c" d="M165 -728V0H77V-728Z"/><path id="sa67" d="M298 216Q238 216 194 200Q149 185 120 160Q91 134 74 104L145 59Q157 74 174 93Q191 112 221 126Q250 139 298 139Q364 139 406 108Q448 77 448 9V-100H440Q431 -84 414 -63Q397 -42 365 -25Q334 -9 281 -9Q216 -9 164 -40Q111 -71 81 -130Q51 -190 51 -275Q51 -360 81 -422Q110 -484 163 -519Q215 -553 283 -553Q336 -553 367 -535Q399 -518 416 -496Q433 -473 442 -458H451V-546H536V14Q536 84 504 129Q473 174 419 195Q365 216 298 216ZM296 -87Q346 -87 380 -110Q414 -132 432 -175Q449 -218 449 -277Q449 -335 432 -380Q415 -424 380 -449Q346 -474 296 -474Q244 -474 209 -448Q175 -421 157 -376Q140 -332 140 -277Q140 -221 158 -178Q175 -135 210 -111Q245 -87 296 -87Z"/><path id="sa6b" d="M160 -196V-305H176L409 -546H518L266 -287H256ZM77 0V-728H165V0ZM422 0 213 -267 276 -329 535 0Z"/><path id="sa70" d="M77 204V-546H162V-458H172Q181 -473 198 -495Q214 -518 246 -535Q277 -553 330 -553Q398 -553 450 -519Q502 -484 532 -421Q562 -358 562 -271Q562 -185 532 -121Q503 -58 451 -23Q399 12 331 12Q279 12 247 -6Q215 -24 198 -47Q181 -69 172 -84H165V204ZM317 -67Q369 -67 403 -94Q438 -122 455 -169Q472 -215 472 -272Q472 -329 455 -375Q438 -420 404 -447Q369 -474 317 -474Q267 -474 233 -449Q199 -423 181 -378Q164 -333 164 -272Q164 -212 182 -166Q199 -119 234 -93Q268 -67 317 -67Z"/></defs><g fill="#8c8c8c" transform="translate(0.0 30) scale(0.0115)"><use href="#sa53" x="0"/><use href="#sa55" x="782"/><use href="#sa4d" x="1666"/><use href="#sa4d" x="2709"/><use href="#sa41" x="3752"/><use href="#sa52" x="4582"/><use href="#sa59" x="5366"/></g><g fill="#f2f2f2" transform="translate(-2.0 96) scale(0.0520)"><use href="#se33" x="0"/><use href="#se34" x="371"/><use href="#se30" x="764"/></g><g fill="#8c8c8c" transform="translate(0.0 120) scale(0.0125)"><use href="#sa63" x="0"/><use href="#sa6f" x="571"/><use href="#sa6e" x="1171"/><use href="#sa74" x="1762"/><use href="#sa72" x="2089"/><use href="#sa69" x="2465"/><use href="#sa62" x="2707"/><use href="#sa75" x="3319"/><use href="#sa74" x="3910"/><use href="#sa69" x="4237"/><use href="#sa6f" x="4479"/><use href="#sa6e" x="5079"/><use href="#sa73" x="5670"/><use href="#sa74" x="6479"/><use href="#sa68" x="6806"/><use href="#sa69" x="7397"/><use href="#sa73" x="7639"/><use href="#sa79" x="8448"/><use href="#sa65" x="9010"/><use href="#sa61" x="9593"/><use href="#sa72" x="10155"/></g><g fill="#f2f2f2" transform="translate(214.0 96) scale(0.0520)"><use href="#se37" x="0"/></g><g fill="#8c8c8c" transform="translate(216.0 120) scale(0.0125)"><use href="#sa64" x="0"/><use href="#sa61" x="612"/><use href="#sa79" x="1174"/><use href="#sa6c" x="2017"/><use href="#sa6f" x="2259"/><use href="#sa6e" x="2859"/><use href="#sa67" x="3450"/><use href="#sa65" x="4063"/><use href="#sa73" x="4646"/><use href="#sa74" x="5174"/><use href="#sa73" x="5782"/><use href="#sa74" x="6310"/><use href="#sa72" x="6637"/><use href="#sa65" x="7013"/><use href="#sa61" x="7596"/><use href="#sa6b" x="8158"/></g><g fill="#f2f2f2" transform="translate(430.0 96) scale(0.0520)"><use href="#se34" x="0"/></g><g fill="#8c8c8c" transform="translate(432.0 120) scale(0.0125)"><use href="#sa70" x="0"/><use href="#sa75" x="612"/><use href="#sa62" x="1203"/><use href="#sa6c" x="1815"/><use href="#sa69" x="2057"/><use href="#sa63" x="2299"/><use href="#sa72" x="3151"/><use href="#sa65" x="3527"/><use href="#sa70" x="4110"/><use href="#sa6f" x="4722"/><use href="#sa73" x="5322"/><use href="#sa69" x="5850"/><use href="#sa74" x="6092"/><use href="#sa6f" x="6419"/><use href="#sa72" x="7019"/><use href="#sa69" x="7395"/><use href="#sa65" x="7637"/><use href="#sa73" x="8220"/></g></svg>
